<svg version="1.1" xmlns="http://www.w3.org/2000/svg" xmlns:xlink="http://www.w3.org/1999/xlink" x="0px" y="0px" enable-background="new 0 0 256 256" xml:space="preserve" viewBox="76.77 10 102.98 235.82">
<metadata> Svg Vector Icons : http://www.onlinewebfonts.com/icon </metadata>
<g><g><g><path fill="#000000" d="M123.8,10.4c-2.5,0.7-4.5,2.4-5.4,4.4c-0.9,1.7-1,2.7-0.9,5.9c0.2,3.5,0.1,3.9-0.6,3.6c-0.7-0.2-0.8,0-0.8,1.5c0,2.7,0.8,4.7,2.4,6.4c1.2,1.3,1.5,1.9,1.8,5.1c0.8,7.7-1,9.8-11.7,13.8c-8.5,3.1-9.9,5.8-8.9,17.7c0.2,3.2,0.2,6.4-0.2,9.5c-0.5,4.3-1.2,6.7-4.3,15.2c-0.7,2-1.3,5.1-1.7,8.3c-0.5,5.2-2.2,12.2-3.8,16c-1,2.3-0.7,2.1-5.9,3.5c-1,0.3-7.4,6.5-7,6.8c0.6,0.6,2.9,0.2,4.5-0.9c0.9-0.6,1.8-1.2,2-1.2c0.7,0-0.6,3.9-2.7,8c-1.2,2.5-2.3,4.8-2.3,5.3c0,0.4,0.6,1.2,1.2,1.8l1.2,1.1l1.1-1.1l1.2-1.1l-0.3,1.4c-0.2,0.9-0.1,1.5,0.3,1.8c0.8,0.5,2.3-1.1,4-4.4l1.6-3l-0.3,2.3c-0.7,5.2,0.5,6.1,2,1.5c0.4-1.3,1.7-4.5,2.8-7c1.2-2.5,2.4-5.8,2.7-7.1c0.4-1.4,1.5-4.1,2.5-6c4.4-8.2,8.8-20.3,9.6-26.7c0.7-5.4,1.2-5.9,1.6-1.6c0.4,4.8-0.7,15.4-2.4,23.2c-3.5,15.6-3.8,18.3-3.9,25.8c0,7.1,0.4,11.9,1.8,26.5c0.7,7.3,0.7,7.5-0.3,13.6c-1.3,8.1-1.1,15.8,0.9,29.3c1.6,10.7,1.8,14.9,0.9,21.4c-0.5,4-0.7,4.7-2.6,7.4c-3.5,5.3-2.4,7.3,4.1,7.3c4.4,0,5.8-0.4,6.4-1.8c0.4-1,0.6-4.5,0.9-16.9c0-1.3-0.1-4.3-0.3-6.7c-0.3-4.1-0.2-4.8,1.8-14c2-9.2,2.1-9.9,2.1-16.9c0-6,0.1-7.7,0.9-9.9c1.3-3.8,2.2-8.5,2.7-14.3c0.2-2.8,0.9-6.8,1.4-8.9c0.5-2.2,1.3-7.6,1.7-12l0.8-8.2h1.7h1.7l0.8,8.1c0.4,4.5,1.2,9.8,1.7,11.9c0.5,2,1.1,6.1,1.4,9c0.6,6.1,1.5,10.7,2.8,14.5c0.8,2.2,0.9,3.9,0.9,10c0,7.1,0.1,7.7,2.1,16.9c2,9,2.1,9.7,1.8,13.9c-0.2,2.4-0.3,5.4-0.3,6.7c0.4,13.1,0.6,16.4,1,17.2c0.6,1.1,2.3,1.5,6.3,1.5c6.4,0,7.8-2.3,4.3-7c-2-2.7-2-2.6-2.8-8c-0.8-5.7-0.6-10.6,1-21.2c2-13.6,2.3-21.3,0.9-29.3c-1-6.1-1-6.3-0.3-13.6c1.5-14.8,1.8-19.5,1.8-26.5c0-7.5-0.5-10.3-3.9-25.8c-1.8-7.9-2.9-18.4-2.4-23.2c0.4-4.4,0.8-3.9,1.6,1.6c0.8,6.4,5.2,18.5,9.4,26.3c1.2,2.1,2.4,5,2.8,6.4c0.4,1.4,1.6,4.6,2.7,7.1c1.1,2.5,2.4,5.7,2.8,7c1.5,4.6,2.7,3.7,2-1.5l-0.3-2.3l1.6,3c1.7,3.3,3.2,4.9,4,4.4c0.4-0.2,0.5-0.9,0.3-1.8l-0.3-1.4l1.2,1.1l1.1,1.1l1.2-1.1c0.6-0.6,1.2-1.4,1.2-1.9c0-0.4-1-2.8-2.3-5.3c-2.2-4.2-3.2-7.2-2.6-7.8c0.1-0.1,1,0.3,1.9,1c1.7,1.1,3.9,1.5,4.5,0.9c0.4-0.4-6-6.5-7.1-6.8c-0.4-0.1-1.7-0.4-2.9-0.7c-1.9-0.5-2.2-0.8-3.1-2.8c-1.7-3.8-3.2-10.6-3.8-15.9c-0.3-3.2-0.9-6.3-1.7-8.3c-3.1-8.5-3.8-10.9-4.3-15.2c-0.4-3-0.4-6.4-0.2-9.7c0.2-2.8,0.3-6.1,0.2-7.4c-0.3-5.1-2.9-8-8.7-10c-4.8-1.6-10-4.4-11.2-5.9c-1.3-1.8-1.6-3.8-1.2-8.1c0.3-3,0.5-3.7,1.5-4.5c1.7-1.5,2.4-3.3,2.6-6c0.1-2,0-2.4-0.7-2.3c-0.7,0.1-0.8-0.3-0.5-3.5c0.3-3,0.1-3.9-0.6-5.7c-1.1-2.4-3.2-4.2-5.9-4.9C129.8,9.9,125.6,9.9,123.8,10.4z"/></g></g></g>
</svg>